<mxfile host="app.diagrams.net" modified="2024-03-31T17:24:01.493Z" agent="Mozilla/5.0 (Macintosh; Intel Mac OS X 10_15_7) AppleWebKit/605.1.15 (KHTML, like Gecko) Version/17.3.1 Safari/605.1.15" etag="M7ilxtk2GU4uWqLvJdeK" version="24.2.1" type="device">
  <diagram name="Page-1" id="ftgBjuNOyO1_quuu3mew">
    <mxGraphModel dx="1242" dy="827" grid="1" gridSize="10" guides="1" tooltips="1" connect="1" arrows="1" fold="1" page="1" pageScale="1" pageWidth="850" pageHeight="1100" math="0" shadow="0">
      <root>
        <mxCell id="0" />
        <mxCell id="1" parent="0" />
        <mxCell id="FFMesDiLdKPJftJJYNsA-1" value="&lt;div style=&quot;font-size: 13px; line-height: 140%;&quot;&gt;&lt;font style=&quot;font-size: 13px;&quot;&gt;&lt;b&gt;Crypto Layer&lt;/b&gt;&lt;/font&gt;&lt;/div&gt;" style="rounded=1;whiteSpace=wrap;html=1;fillColor=none;strokeWidth=2;" parent="1" vertex="1">
          <mxGeometry x="220" y="660" width="210" height="40" as="geometry" />
        </mxCell>
        <mxCell id="hp0rBDxHy6wKMSYiNZUa-1" value="&lt;font style=&quot;font-size: 13px;&quot;&gt;&lt;b&gt;Hardware Abstraction layer&lt;/b&gt;&lt;/font&gt;" style="rounded=1;whiteSpace=wrap;html=1;fillColor=none;strokeWidth=2;" parent="1" vertex="1">
          <mxGeometry x="220" y="780" width="210" height="40" as="geometry" />
        </mxCell>
        <mxCell id="hp0rBDxHy6wKMSYiNZUa-2" value="&lt;div style=&quot;font-size: 13px; line-height: 140%;&quot;&gt;&lt;b&gt;&lt;font style=&quot;font-size: 13px;&quot;&gt;Scheme switching &lt;/font&gt;&lt;font style=&quot;font-size: 13px;&quot;&gt;Layer&lt;br&gt;&lt;/font&gt;&lt;/b&gt;&lt;/div&gt;" style="rounded=1;whiteSpace=wrap;html=1;fillColor=none;strokeWidth=2;" parent="1" vertex="1">
          <mxGeometry x="220" y="600" width="210" height="40" as="geometry" />
        </mxCell>
        <mxCell id="hp0rBDxHy6wKMSYiNZUa-3" value="&lt;div style=&quot;font-size: 13px; line-height: 140%;&quot;&gt;&lt;b&gt;Application &lt;font style=&quot;font-size: 13px;&quot;&gt;Layer&lt;br&gt;&lt;/font&gt;&lt;/b&gt;&lt;/div&gt;" style="rounded=1;whiteSpace=wrap;html=1;fillColor=none;strokeWidth=2;" parent="1" vertex="1">
          <mxGeometry x="220" y="540" width="210" height="40" as="geometry" />
        </mxCell>
        <mxCell id="hp0rBDxHy6wKMSYiNZUa-4" value="&lt;div style=&quot;font-size: 13px; line-height: 140%;&quot;&gt;&lt;b&gt;Configuration &lt;font style=&quot;font-size: 13px;&quot;&gt;Layer&lt;br&gt;&lt;/font&gt;&lt;/b&gt;&lt;/div&gt;" style="rounded=1;whiteSpace=wrap;html=1;fillColor=none;strokeWidth=2;" parent="1" vertex="1">
          <mxGeometry x="220" y="480" width="210" height="40" as="geometry" />
        </mxCell>
        <mxCell id="hp0rBDxHy6wKMSYiNZUa-5" value="&lt;div style=&quot;font-size: 13px; line-height: 140%;&quot;&gt;&lt;b&gt;User Interface &lt;font style=&quot;font-size: 13px;&quot;&gt;Layer&lt;br&gt;&lt;/font&gt;&lt;/b&gt;&lt;/div&gt;" style="rounded=1;whiteSpace=wrap;html=1;fillColor=none;strokeWidth=2;" parent="1" vertex="1">
          <mxGeometry x="220" y="420" width="210" height="37" as="geometry" />
        </mxCell>
        <mxCell id="hp0rBDxHy6wKMSYiNZUa-9" value="Component library" style="rounded=0;whiteSpace=wrap;html=1;fillColor=none;dashed=1;dashPattern=12 12;fontStyle=1" parent="1" vertex="1">
          <mxGeometry x="470" y="540" width="290" height="40" as="geometry" />
        </mxCell>
        <mxCell id="hp0rBDxHy6wKMSYiNZUa-11" value="&lt;div&gt;&lt;b&gt;Cryptography libraries:&lt;/b&gt;&lt;/div&gt;&lt;div&gt;Concrete, SEAL, Lattigo, HElib, OpenFHE,&amp;nbsp;Λ&lt;span dir=&quot;ltr&quot; role=&quot;presentation&quot; style=&quot;left: 133.842px; top: 242.907px; font-size: 10.0751px; font-family: sans-serif;&quot;&gt;o&lt;/span&gt;&lt;span dir=&quot;ltr&quot; role=&quot;presentation&quot; style=&quot;left: 138.88px; top: 242.907px; font-size: 10.0751px; font-family: sans-serif;&quot;&gt;λ, etc.&lt;/span&gt;&lt;span dir=&quot;ltr&quot; role=&quot;presentation&quot; style=&quot;left: 144.757px; top: 242.907px; font-size: 10.0751px; font-family: sans-serif;&quot;&gt;&lt;/span&gt;&lt;/div&gt;" style="rounded=0;whiteSpace=wrap;html=1;fillColor=none;dashed=1;dashPattern=12 12;" parent="1" vertex="1">
          <mxGeometry x="470" y="600" width="290" height="100" as="geometry" />
        </mxCell>
        <mxCell id="hp0rBDxHy6wKMSYiNZUa-12" value="Hardware Abtsraction Libraries" style="rounded=0;whiteSpace=wrap;html=1;fillColor=none;dashed=1;dashPattern=12 12;fontStyle=1" parent="1" vertex="1">
          <mxGeometry x="470" y="780" width="290" height="40" as="geometry" />
        </mxCell>
        <mxCell id="hp0rBDxHy6wKMSYiNZUa-13" value="&lt;div&gt;&lt;b&gt;Transpilers and compilers:&lt;/b&gt;&lt;/div&gt;&lt;div&gt;EVA, RAMPARTS, Cingulata, ALCHEMY, Marble,&lt;/div&gt;&lt;div&gt;Transpiler, etc.&lt;br&gt;&lt;/div&gt;" style="rounded=0;whiteSpace=wrap;html=1;fillColor=none;dashed=1;dashPattern=12 12;" parent="1" vertex="1">
          <mxGeometry x="470" y="420" width="290" height="100" as="geometry" />
        </mxCell>
        <mxCell id="hp0rBDxHy6wKMSYiNZUa-14" value="&lt;font style=&quot;font-size: 13px;&quot;&gt;&lt;b&gt;Physical layer&lt;/b&gt;&lt;/font&gt;" style="rounded=1;whiteSpace=wrap;html=1;fillColor=none;strokeWidth=2;" parent="1" vertex="1">
          <mxGeometry x="220" y="840" width="210" height="40" as="geometry" />
        </mxCell>
        <mxCell id="hp0rBDxHy6wKMSYiNZUa-15" value="Hardware implementations" style="rounded=0;whiteSpace=wrap;html=1;fillColor=none;dashed=1;dashPattern=12 12;fontStyle=1" parent="1" vertex="1">
          <mxGeometry x="470" y="840" width="290" height="40" as="geometry" />
        </mxCell>
        <mxCell id="z7_c2UHrHnC4r_fKzJ2V-1" value="&lt;font style=&quot;font-size: 13px;&quot;&gt;&lt;b&gt;Math Layer&lt;/b&gt;&lt;/font&gt;" style="rounded=1;whiteSpace=wrap;html=1;fillColor=none;strokeWidth=2;" vertex="1" parent="1">
          <mxGeometry x="220" y="720" width="210" height="40" as="geometry" />
        </mxCell>
        <mxCell id="z7_c2UHrHnC4r_fKzJ2V-2" value="Primitive Math libraries" style="rounded=0;whiteSpace=wrap;html=1;fillColor=none;dashed=1;dashPattern=12 12;fontStyle=1" vertex="1" parent="1">
          <mxGeometry x="470" y="720" width="290" height="40" as="geometry" />
        </mxCell>
      </root>
    </mxGraphModel>
  </diagram>
</mxfile>
